<svg id="logotipo-do-instagram" xmlns="http://www.w3.org/2000/svg" width="22.386" height="22.386" viewBox="0 0 22.386 22.386">
  <path id="Path_14" data-name="Path 14" d="M16.208,0H6.178A6.185,6.185,0,0,0,0,6.178V16.208a6.185,6.185,0,0,0,6.178,6.178H16.208a6.185,6.185,0,0,0,6.178-6.178V6.178A6.185,6.185,0,0,0,16.208,0ZM20.4,16.208A4.2,4.2,0,0,1,16.208,20.4H6.178a4.2,4.2,0,0,1-4.191-4.192V6.178A4.2,4.2,0,0,1,6.178,1.986H16.208A4.2,4.2,0,0,1,20.4,6.178V16.208Z" fill="#fff"/>
  <path id="Path_15" data-name="Path 15" d="M46.736,40.97A5.768,5.768,0,1,0,52.5,46.738,5.775,5.775,0,0,0,46.736,40.97Zm0,9.55a3.782,3.782,0,1,1,3.782-3.782A3.786,3.786,0,0,1,46.736,50.52Z" transform="translate(-35.543 -35.545)" fill="#fff"/>
  <path id="Path_16" data-name="Path 16" d="M120.378,28.251a1.456,1.456,0,1,0,1.03.426A1.462,1.462,0,0,0,120.378,28.251Z" transform="translate(-103.174 -24.51)" fill="#fff"/>
</svg>
