<svg xmlns="http://www.w3.org/2000/svg" width="24" height="24" viewBox="0 0 24 24">
  <g id="log-in" transform="translate(12 12)">
    <g id="log-in-2" data-name="log-in" transform="translate(-12 -12)">
      <g id="log-in-3" data-name="log-in">
        <rect id="Rectangle_6" data-name="Rectangle 6" width="24" height="24" transform="translate(0 24) rotate(-90)" fill="#333" opacity="0"/>
        <path id="Path_7" data-name="Path 7" d="M19,4H17a1,1,0,0,0,0,2h1V18H17a1,1,0,0,0,0,2h2a1,1,0,0,0,1-1V5A1,1,0,0,0,19,4Z" fill="#333"/>
        <path id="Path_8" data-name="Path 8" d="M11.8,7.4a1,1,0,1,0-1.6,1.2L12,11H4a1,1,0,0,0,0,2h8.09l-1.72,2.44A1,1,0,0,0,12,16.6l2.82-4a1,1,0,0,0,0-1.18Z" fill="#333"/>
      </g>
    </g>
  </g>
</svg>
