<svg xmlns="http://www.w3.org/2000/svg" width="25.302" height="30.064" viewBox="0 0 25.302 30.064">
  <g id="shield" transform="translate(-33.908)">
    <g id="Group_7" data-name="Group 7" transform="translate(33.908 0)">
      <path id="Path_13" data-name="Path 13" d="M59.178,7.738c-.036-.791-.036-1.546-.036-2.3a1.059,1.059,0,0,0-1.079-1.079A14.445,14.445,0,0,1,47.314.3,1.109,1.109,0,0,0,45.8.3,14.445,14.445,0,0,1,35.055,4.359a1.059,1.059,0,0,0-1.079,1.079c0,.755,0,1.51-.036,2.3-.144,7.55-.36,17.9,12.259,22.254l.36.072.36-.072C59.5,25.642,59.322,15.324,59.178,7.738ZM45.7,18.2a1.16,1.16,0,0,1-.755.288h-.036a1.012,1.012,0,0,1-.755-.36l-3.343-3.7,1.618-1.438L45.049,15.9l5.824-5.536,1.474,1.582Z" transform="translate(-33.908 0)" fill="#a4a4a4"/>
    </g>
  </g>
</svg>
