<svg xmlns="http://www.w3.org/2000/svg" width="47" height="47.226" viewBox="0 0 47 47.226">
  <path id="whatsapp_11_" data-name="whatsapp (11)" d="M40.4,6.863A23.407,23.407,0,0,0,3.57,35.1L.25,47.226l12.406-3.254A23.377,23.377,0,0,0,23.839,46.82h.01A23.412,23.412,0,0,0,40.4,6.863Zm-16.554,36H23.84a19.427,19.427,0,0,1-9.9-2.711l-.71-.422L5.869,41.666l1.965-7.178-.463-.736a19.451,19.451,0,1,1,16.477,9.115ZM34.517,28.3c-.585-.293-3.46-1.707-4-1.9s-.926-.292-1.315.293-1.51,1.9-1.852,2.292-.682.439-1.267.146a15.971,15.971,0,0,1-4.7-2.9,17.638,17.638,0,0,1-3.253-4.05c-.341-.586,0-.872.257-1.193a16.54,16.54,0,0,0,1.462-2,1.075,1.075,0,0,0-.049-1.024c-.146-.293-1.315-3.171-1.8-4.342-.475-1.14-.957-.986-1.316-1-.341-.017-.731-.02-1.121-.02A2.148,2.148,0,0,0,14,13.325,6.558,6.558,0,0,0,11.957,18.2c0,2.878,2.1,5.659,2.388,6.049s4.123,6.3,9.989,8.829a33.47,33.47,0,0,0,3.334,1.232,8.016,8.016,0,0,0,3.683.232c1.124-.168,3.459-1.415,3.947-2.78a4.886,4.886,0,0,0,.341-2.781c-.146-.244-.536-.39-1.12-.683Zm0,0" transform="translate(-0.25)" fill="#333" fill-rule="evenodd"/>
</svg>
